<svg xmlns="http://www.w3.org/2000/svg" version="1.1" preserveAspectRatio="xMidYMid" class="squaire" data-breakpoint="small-xsmall" width="100%" height="100%" viewBox="0 0 345 250"><g data-box="VT" class="landlocked"><rect x="282" y="31" width="31" height="31" class="box-rect" style="fill: rgb(230, 239, 249);"></rect><text x="297" y="47" style="fill: rgb(51, 51, 51);">VT</text></g><g data-box="MD" class="coast"><rect x="282" y="125" width="31" height="31" class="box-rect" style="fill: rgb(230, 239, 249);"></rect><text x="297" y="141" style="fill: rgb(51, 51, 51);">MD</text></g><g data-box="DE" class="coast"><rect x="313" y="125" width="31" height="31" class="box-rect" style="fill: rgb(230, 239, 249);"></rect><text x="329" y="141" style="fill: rgb(51, 51, 51);">DE</text></g><g data-box="WV" class="landlocked"><rect x="219" y="125" width="31" height="31" class="box-rect" style="fill: rgb(230, 239, 249);"></rect><text x="235" y="141" style="fill: rgb(51, 51, 51);">WV</text></g><g data-box="HI" class="coast"><rect x="0" y="219" width="31" height="31" class="box-rect" style="fill: rgb(230, 239, 249);"></rect><text x="15" y="235" style="fill: rgb(51, 51, 51);">HI</text></g><g data-box="WA" class="coast"><rect x="0" y="62" width="31" height="31" class="box-rect" style="fill: rgb(230, 239, 249);"></rect><text x="15" y="78" style="fill: rgb(51, 51, 51);">WA</text></g><g data-box="ID" class="landlocked"><rect x="31" y="62" width="31" height="31" class="box-rect" style="fill: rgb(230, 239, 249);"></rect><text x="47" y="78" style="fill: rgb(51, 51, 51);">ID</text></g><g data-box="CA" class="coast"><rect x="0" y="125" width="31" height="31" class="box-rect" style="fill: rgb(0, 121, 174);"></rect><text x="15" y="141" style="fill: rgb(255, 255, 255);">CA</text></g><g data-box="OK" class="landlocked"><rect x="94" y="188" width="31" height="31" class="box-rect" style="fill: rgb(230, 239, 249);"></rect><text x="109" y="203" style="fill: rgb(51, 51, 51);">OK</text></g><g data-box="TX" class="coast"><rect x="94" y="219" width="31" height="31" class="box-rect" style="fill: rgb(0, 152, 219);"></rect><text x="109" y="235" style="fill: rgb(255, 255, 255);">TX</text></g><g data-box="FL" class="coast"><rect x="250" y="219" width="31" height="31" class="box-rect" style="fill: rgb(149, 203, 238);"></rect><text x="266" y="235" style="fill: rgb(51, 51, 51);">FL</text></g><g data-box="AL" class="coast"><rect x="188" y="188" width="31" height="31" class="box-rect" style="fill: rgb(230, 239, 249);"></rect><text x="203" y="203" style="fill: rgb(51, 51, 51);">AL</text></g><g data-box="TN" class="landlocked"><rect x="156" y="156" width="31" height="31" class="box-rect" style="fill: rgb(230, 239, 249);"></rect><text x="172" y="172" style="fill: rgb(51, 51, 51);">TN</text></g><g data-box="MS" class="coast"><rect x="156" y="188" width="31" height="31" class="box-rect" style="fill: rgb(230, 239, 249);"></rect><text x="172" y="203" style="fill: rgb(51, 51, 51);">MS</text></g><g data-box="LA" class="coast"><rect x="125" y="188" width="31" height="31" class="box-rect" style="fill: rgb(230, 239, 249);"></rect><text x="141" y="203" style="fill: rgb(51, 51, 51);">LA</text></g><g data-box="AR" class="landlocked"><rect x="125" y="156" width="31" height="31" class="box-rect" style="fill: rgb(230, 239, 249);"></rect><text x="141" y="172" style="fill: rgb(51, 51, 51);">AR</text></g><g data-box="AZ" class="landlocked"><rect x="31" y="156" width="31" height="31" class="box-rect" style="fill: rgb(230, 239, 249);"></rect><text x="47" y="172" style="fill: rgb(51, 51, 51);">AZ</text></g><g data-box="NM" class="landlocked"><rect x="62" y="156" width="31" height="31" class="box-rect" style="fill: rgb(230, 239, 249);"></rect><text x="78" y="172" style="fill: rgb(51, 51, 51);">NM</text></g><g data-box="IL" class="landlocked"><rect x="156" y="125" width="31" height="31" class="box-rect" style="fill: rgb(201, 226, 245);"></rect><text x="172" y="141" style="fill: rgb(51, 51, 51);">IL</text></g><g data-box="NC" class="coast"><rect x="188" y="156" width="31" height="31" class="box-rect" style="fill: rgb(201, 226, 245);"></rect><text x="203" y="172" style="fill: rgb(51, 51, 51);">NC</text></g><g data-box="SC" class="coast"><rect x="219" y="156" width="31" height="31" class="box-rect" style="fill: rgb(230, 239, 249);"></rect><text x="235" y="172" style="fill: rgb(51, 51, 51);">SC</text></g><g data-box="GA" class="coast"><rect x="219" y="188" width="31" height="31" class="box-rect" style="fill: rgb(201, 226, 245);"></rect><text x="235" y="203" style="fill: rgb(51, 51, 51);">GA</text></g><g data-box="DC" class="landlocked"><rect x="250" y="156" width="31" height="31" class="box-rect" style="fill: rgb(230, 239, 249);"></rect><text x="266" y="172" style="fill: rgb(51, 51, 51);">DC</text></g><g data-box="VA" class="coast"><rect x="250" y="125" width="31" height="31" class="box-rect" style="fill: rgb(201, 226, 245);"></rect><text x="266" y="141" style="fill: rgb(51, 51, 51);">VA</text></g><g data-box="PA" class="landlocked"><rect x="250" y="94" width="31" height="31" class="box-rect" style="fill: rgb(201, 226, 245);"></rect><text x="266" y="109" style="fill: rgb(51, 51, 51);">PA</text></g><g data-box="NJ" class="coast"><rect x="282" y="94" width="31" height="31" class="box-rect" style="fill: rgb(201, 226, 245);"></rect><text x="297" y="109" style="fill: rgb(51, 51, 51);">NJ</text></g><g data-box="CT" class="coast"><rect x="313" y="94" width="31" height="31" class="box-rect" style="fill: rgb(230, 239, 249);"></rect><text x="329" y="109" style="fill: rgb(51, 51, 51);">CT</text></g><g data-box="RI" class="coast"><rect x="313" y="62" width="31" height="31" class="box-rect" style="fill: rgb(230, 239, 249);"></rect><text x="329" y="78" style="fill: rgb(51, 51, 51);">RI</text></g><g data-box="MT" class="landlocked"><rect x="62" y="62" width="31" height="31" class="box-rect" style="fill: rgb(230, 239, 249);"></rect><text x="78" y="78" style="fill: rgb(51, 51, 51);">MT</text></g><g data-box="ND" class="landlocked"><rect x="94" y="62" width="31" height="31" class="box-rect" style="fill: rgb(230, 239, 249);"></rect><text x="109" y="78" style="fill: rgb(51, 51, 51);">ND</text></g><g data-box="MI" class="landlocked"><rect x="188" y="62" width="31" height="31" class="box-rect" style="fill: rgb(201, 226, 245);"></rect><text x="203" y="78" style="fill: rgb(51, 51, 51);">MI</text></g><g data-box="IN" class="landlocked"><rect x="188" y="94" width="31" height="31" class="box-rect" style="fill: rgb(230, 239, 249);"></rect><text x="203" y="109" style="fill: rgb(51, 51, 51);">IN</text></g><g data-box="WI" class="landlocked"><rect x="156" y="94" width="31" height="31" class="box-rect" style="fill: rgb(230, 239, 249);"></rect><text x="172" y="109" style="fill: rgb(51, 51, 51);">WI</text></g><g data-box="SD" class="landlocked"><rect x="94" y="94" width="31" height="31" class="box-rect" style="fill: rgb(230, 239, 249);"></rect><text x="109" y="109" style="fill: rgb(51, 51, 51);">SD</text></g><g data-box="WY" class="landlocked"><rect x="62" y="94" width="31" height="31" class="box-rect" style="fill: rgb(230, 239, 249);"></rect><text x="78" y="109" style="fill: rgb(51, 51, 51);">WY</text></g><g data-box="NE" class="landlocked"><rect x="94" y="125" width="31" height="31" class="box-rect" style="fill: rgb(230, 239, 249);"></rect><text x="109" y="141" style="fill: rgb(51, 51, 51);">NE</text></g><g data-box="KS" class="landlocked"><rect x="94" y="156" width="31" height="31" class="box-rect" style="fill: rgb(230, 239, 249);"></rect><text x="109" y="172" style="fill: rgb(51, 51, 51);">KS</text></g><g data-box="CO" class="landlocked"><rect x="62" y="125" width="31" height="31" class="box-rect" style="fill: rgb(230, 239, 249);"></rect><text x="78" y="141" style="fill: rgb(51, 51, 51);">CO</text></g><g data-box="NV" class="landlocked"><rect x="31" y="125" width="31" height="31" class="box-rect" style="fill: rgb(230, 239, 249);"></rect><text x="47" y="141" style="fill: rgb(51, 51, 51);">NV</text></g><g data-box="UT" class="landlocked"><rect x="31" y="94" width="31" height="31" class="box-rect" style="fill: rgb(230, 239, 249);"></rect><text x="47" y="109" style="fill: rgb(51, 51, 51);">UT</text></g><g data-box="OR" class="coast"><rect x="0" y="94" width="31" height="31" class="box-rect" style="fill: rgb(230, 239, 249);"></rect><text x="15" y="109" style="fill: rgb(51, 51, 51);">OR</text></g><g data-box="AK" class="coast"><rect x="0" y="0" width="31" height="31" class="box-rect" style="fill: rgb(230, 239, 249);"></rect><text x="15" y="15" style="fill: rgb(51, 51, 51);">AK</text></g><g data-box="MN" class="landlocked"><rect x="125" y="62" width="31" height="31" class="box-rect" style="fill: rgb(230, 239, 249);"></rect><text x="141" y="78" style="fill: rgb(51, 51, 51);">MN</text></g><g data-box="IA" class="landlocked"><rect x="125" y="94" width="31" height="31" class="box-rect" style="fill: rgb(230, 239, 249);"></rect><text x="141" y="109" style="fill: rgb(51, 51, 51);">IA</text></g><g data-box="MO" class="landlocked"><rect x="125" y="125" width="31" height="31" class="box-rect" style="fill: rgb(230, 239, 249);"></rect><text x="141" y="141" style="fill: rgb(51, 51, 51);">MO</text></g><g data-box="KY" class="landlocked"><rect x="188" y="125" width="31" height="31" class="box-rect" style="fill: rgb(230, 239, 249);"></rect><text x="203" y="141" style="fill: rgb(51, 51, 51);">KY</text></g><g data-box="OH" class="landlocked"><rect x="219" y="94" width="31" height="31" class="box-rect" style="fill: rgb(201, 226, 245);"></rect><text x="235" y="109" style="fill: rgb(51, 51, 51);">OH</text></g><g data-box="NY" class="coast"><rect x="250" y="62" width="31" height="31" class="box-rect" style="fill: rgb(149, 203, 238);"></rect><text x="266" y="78" style="fill: rgb(51, 51, 51);">NY</text></g><g data-box="MA" class="coast"><rect x="282" y="62" width="31" height="31" class="box-rect" style="fill: rgb(230, 239, 249);"></rect><text x="297" y="78" style="fill: rgb(51, 51, 51);">MA</text></g><g data-box="NH" class="coast"><rect x="313" y="31" width="31" height="31" class="box-rect" style="fill: rgb(230, 239, 249);"></rect><text x="329" y="47" style="fill: rgb(51, 51, 51);">NH</text></g><g data-box="ME" class="coast active"><rect x="313" y="0" width="31" height="31" class="box-rect" style="fill: rgb(230, 239, 249);"></rect><text x="329" y="15" style="fill: rgb(51, 51, 51);">ME</text></g></svg>